<svg xmlns="http://www.w3.org/2000/svg" xmlns:xlink="http://www.w3.org/1999/xlink" width="768" height="406" xmlns:v="https://vecta.io/nano"><style><![CDATA[.B{fill:#c72c48}.C{fill:#000}.D{fill:#a0a0a0}.E{fill:#686868}.F{fill:#d3d3d3}.G{fill-rule:nonzero}]]></style><g fill="none" fill-rule="evenodd"><g class="G"><path fill="#fff" d="M.366.59h766.912v405.304H.366z"/><path d="M427.446 168.19l-1.5-1.32 41.45-47.26a16 16 0 0 1 10.83-4.22h64.29v2h-64.3a14 14 0 0 0-9.44 3.66l-41.33 47.14z" class="D"/><path d="M542.506 265.88h-64.29a16 16 0 0 1-10.83-4.22l-.07-.08-44.56-50.54 1.5-1.32 44.53 50.5a14 14 0 0 0 9.44 3.66h64.29l-.01 2z" class="B"/><path d="M567.086 86.39h25.52c3.16 0 5.05.76 5.39 2.53.57 2.95.66 5.64-2.3 6.78a2.19 2.19 0 0 0-1.18 1.56l-4.27 37a30.57 30.57 0 0 1-1.28 6.73c-1.12 3.16-3.42 4.35-7.43 4.36h-27.8c-6 0-8.94-2.09-9.5-7l-4.21-37c-.1-.92-.31-1.84-.36-2.76-.08-1.42-.09-2.67-2.14-3.48-1.83-.72-2.43-4.1-1.49-6.33.82-1.94 2.73-2.45 5.06-2.44l25.99.05zm25.83 9.72h-51.8l2.25 19.86 2.72 22.82c.47 3.73 2.62 5.22 7.14 5.22h27.1c5.22 0 7.17-1.42 7.69-5.75l3.53-29.82 1.37-12.33zm-25.79-1.5h25.74c3 0 3.74-.77 3.73-3.54s-.77-3.33-3.71-3.34h-51.47c-1.16 0-3.12.44-3.31 1a7.07 7.07 0 0 0-.1 4.6c.24.65 2.34 1.19 3.61 1.2 8.5.17 17.01.08 25.51.08zm-.04 140.78h25.52c3.16 0 5.05.76 5.39 2.53.57 2.95.66 5.64-2.3 6.78a2.19 2.19 0 0 0-1.18 1.56l-4.27 37a30.57 30.57 0 0 1-1.28 6.73c-1.12 3.16-3.42 4.35-7.43 4.36h-27.8c-6 0-8.94-2.09-9.5-7l-4.21-37c-.1-.92-.31-1.84-.36-2.76-.08-1.42-.09-2.67-2.14-3.48-1.83-.72-2.43-4.1-1.49-6.33.82-1.94 2.73-2.45 5.06-2.44l25.99.05zm25.83 9.72h-51.8l2.25 19.86 2.72 22.82c.47 3.73 2.62 5.22 7.14 5.22h27.1c5.22 0 7.17-1.42 7.69-5.75l3.53-29.82 1.37-12.33zm-25.79-1.5h25.74c3 0 3.74-.77 3.73-3.54s-.77-3.33-3.71-3.34h-51.47c-1.16 0-3.12.44-3.31 1a7.07 7.07 0 0 0-.1 4.6c.24.65 2.34 1.19 3.61 1.2 8.5.17 17.01.08 25.51.08z" fill="#424242"/><path d="M268.016 265.88h-59.29v-2h59.29a14 14 0 0 0 9.43-3.66l41.31-47.15 1.5 1.32-41.42 47.27a16 16 0 0 1-10.82 4.22z" class="D"/><g class="B"><path d="M318.756 168.19l-41.31-47.15a14 14 0 0 0-9.43-3.66h-59.29v-2h59.29a16 16 0 0 1 10.82 4.23l.08.08 41.34 47.19-1.5 1.31z"/><circle cx="372.006" cy="186.88" r="60.5"/></g><path d="M356.916 180.64h4.81v12.49h-4.81v-12.49zm-5.83.17l-9.77 5.24a.49.49 0 0 1-.45 0l-9.77-5.24a1.48 1.48 0 0 0-.7-.17 1.27 1.27 0 0 0-1.34 1.18v11.29h4.81v-5.38a.49.49 0 0 1 .73-.36l5.47 2.94a1.92 1.92 0 0 0 1.76 0l5.78-3a.48.48 0 0 1 .72.36v5.39h4.81v-11.25a1.27 1.27 0 0 0-1.34-1.18 1.48 1.48 0 0 0-.71.18zm34.64-.2h-4.88v5.68a.48.48 0 0 1-.71.37l-12.69-5.88a1.49 1.49 0 0 0-.63-.14 1.27 1.27 0 0 0-1.34 1.18v11.3h4.84v-5.68a.48.48 0 0 1 .71-.37l12.7 5.92a1.49 1.49 0 0 0 .63.14 1.27 1.27 0 0 0 1.34-1.18l.03-11.34zm3.78 12.51v-12.51h2.21v12.49l-2.21.02zm15.25.23c-6 0-10.18-2.48-10.18-6.46s4.25-6.46 10.18-6.46 10.21 2.48 10.21 6.46-4.18 6.46-10.21 6.46zm0-11.27c-4.43 0-7.84 1.7-7.84 4.81s3.41 4.81 7.84 4.81 7.87-1.68 7.87-4.81-3.44-4.82-7.87-4.82v.01z" fill="#fff"/></g><path d="M372.506 247.38v79" stroke="#c72c48" stroke-width="2"/><g class="G"><path d="M150.416 115.38h11.6v2h-11.6v-2zm-59-1h11.6v2h-11.6v-2z" class="B"/><g class="C"><use xlink:href="#B"/><use xlink:href="#C"/><path d="M161.632 103.204l.413-1.084 22.999 8.76-.413 1.083-22.999-8.759zm-35.786 36.786l-23.56-10.1v-28.13l23.56-9 24.72 9v28.15l-24.72 10.08zm-22.4-10.84l22.44 9.62 23.56-9.62v-26.61l-23.58-8.56-22.42 8.55v26.62z"/><use xlink:href="#C" x="-59"/><path d="M102.632 103.21l.413-1.083 22.999 8.76-.413 1.083-22.999-8.76zm-35.786 36.78l-23.56-10.1v-28.13l23.56-9 24.72 9v28.15l-24.72 10.08zm-22.4-10.84l22.44 9.62 23.56-9.62v-26.61l-23.58-8.56-22.42 8.55v26.62z"/><use xlink:href="#C" x="-118"/><path d="M43.634 103.207l.412-1.084 22.999 8.76-.413 1.083z"/></g><path d="M149.416 264.38h11.6v2h-11.6v-2zm-59-1h11.6v2h-11.6v-2z" class="B"/><g class="C"><use xlink:href="#B" x="-1" y="149"/><use xlink:href="#D"/><path d="M160.629 252.2l.413-1.083 22.999 8.76-.413 1.083-22.999-8.76zm-35.783 36.79l-23.56-10.1v-28.13l23.56-9 24.72 9v28.15l-24.72 10.08zm-22.4-10.84l22.44 9.62 23.56-9.62v-26.61l-23.58-8.56-22.42 8.55v26.62z"/><use xlink:href="#D" x="-59"/><path d="M101.639 252.198l.413-1.084 22.999 8.759-.413 1.084-22.999-8.759zM65.846 288.99l-23.56-10.1v-28.13l23.56-9 24.72 9v28.15l-24.72 10.08zm-22.4-10.84l22.44 9.62 23.56-9.62v-26.61l-23.58-8.56-22.42 8.55v26.62z"/><use xlink:href="#D" x="-118"/><path d="M42.641 252.204l.412-1.084 22.999 8.76-.413 1.083z"/></g></g><g stroke="#a0a0a0"><ellipse stroke-width="1.69" cx="372.506" cy="333.48" rx="24" ry="6.9"/><path d="M396.506 334.52v23.86c0 5.14-10.75 9.31-24 9.31s-24-4.17-24-9.31v-24" stroke-width="1.96"/></g><g class="G"><g class="B"><path d="M684.006 159.38h-34.68a4.33 4.33 0 0 1-4.32-4.32V115.7h2v39.36a2.32 2.32 0 0 0 2.32 2.32h34.68v2z"/><use xlink:href="#E"/><use xlink:href="#F"/><path d="M683.593 148.124l.395-1.038 15.503 5.905-.395 1.037z"/></g><path d="M647.006 116.38h-2V77.02a4.33 4.33 0 0 1 4.32-4.32h34.68v2h-34.68a2.32 2.32 0 0 0-2.32 2.32v39.36z" class="D"/><g class="C"><path d="M699.346 89.98l-16-6.88V63.9l16-6.11 16.83 6.11v19.21l-16.83 6.87zm-14.9-7.61l15 6.41 15.72-6.41V64.68l-15.72-5.7-15 5.7v17.69z"/><path d="M699.906 89.38h-1.11V69.99l16.33-6.22.39 1.04-15.61 5.94z"/><path d="M683.589 65.132l.395-1.038 15.503 5.905-.395 1.037z"/></g><path d="M592.306 115.38h92.19v2h-92.19z" class="D"/><g class="C"><use xlink:href="#E" y="-41"/><use xlink:href="#F" y="-41"/><path d="M683.587 107.13l.396-1.037 15.503 5.905-.395 1.037z"/></g><g class="B"><path d="M684.006 308.38h-34.68a4.33 4.33 0 0 1-4.32-4.32V264.7h2v39.36a2.32 2.32 0 0 0 2.32 2.32h34.68v2z"/><use xlink:href="#G"/><use xlink:href="#F" y="149"/><path d="M683.7 297.23l.395-1.038 15.503 5.907-.396 1.038z"/></g><path d="M647.006 265.38h-2v-39.36a4.32 4.32 0 0 1 4.32-4.32h34.68v2h-34.68a2.32 2.32 0 0 0-2.32 2.32v39.36z" class="D"/><g class="C"><path d="M699.346 238.98l-16-6.88v-19.2l16-6.11 16.83 6.11v19.21l-16.83 6.87zm-14.9-7.61l15 6.41 15.72-6.42v-17.68l-15.72-5.7-15 5.7v17.69z"/><use xlink:href="#F" y="66"/><path d="M683.7 214.224l.395-1.037 15.503 5.908-.395 1.037z"/></g><g class="B"><use xlink:href="#G" y="-41"/><use xlink:href="#F" y="108"/><path d="M683.698 256.23l.395-1.037 15.502 5.907-.395 1.038z"/></g><circle cx="66.196" cy="175.16" r="2.74" class="E"/><circle fill="#aaa" cx="66.196" cy="186.88" r="2.74"/><circle cx="66.196" cy="198.6" r="2.74" class="F"/><circle cx="125.196" cy="175.16" r="2.74" class="E"/><circle fill="#aaa" cx="125.196" cy="186.88" r="2.74"/><circle cx="125.196" cy="198.6" r="2.74" class="F"/><circle cx="184.196" cy="175.16" r="2.74" class="E"/><circle fill="#aaa" cx="184.196" cy="186.88" r="2.74"/><circle cx="184.196" cy="198.6" r="2.74" class="F"/><circle cx="564.196" cy="178.16" r="2.74" class="E"/><circle fill="#aaa" cx="564.196" cy="189.88" r="2.74"/><circle cx="564.196" cy="201.6" r="2.74" class="F"/><path d="M592.306 264.38h92.19v2h-92.19z" class="B"/></g><path d="M118.743 71.004c2.97 0 4.855 1.774 4.855 4.55s-1.885 4.55-4.855 4.55h-3.426v-9.1h3.426zm-2.38.988v7.124h2.38c2.463 0 3.757-1.43 3.757-3.562 0-2.152-1.294-3.562-3.757-3.562h-2.38zm15.009 8.112h-.968v-.917c-.494.631-1.229 1.04-2.25 1.04-1.735 0-3.074-1.352-3.074-3.204 0-1.846 1.339-3.198 3.075-3.198 1.02 0 1.755.416 2.249 1.04v-.917h.968v6.156zm-3.1-5.369c-1.32 0-2.204 1.02-2.204 2.288 0 1.274.897 2.294 2.204 2.294 1.28 0 2.19-.988 2.19-2.294 0-1.3-.91-2.288-2.19-2.288zm9.555.091h-2.659v3.107c0 .962.514 1.384 1.222 1.384.475 0 .93-.175 1.294-.435l.455.734c-.523.404-1.166.62-1.827.612-1.326 0-2.112-.729-2.112-2.276v-3.126h-1.346v-.878h1.346v-1.956h.968v1.956h2.659v.878zm7.514 5.278h-.969v-.917c-.494.631-1.228 1.04-2.249 1.04-1.735 0-3.074-1.352-3.074-3.204 0-1.846 1.339-3.198 3.074-3.198 1.02 0 1.755.416 2.249 1.04v-.917h.969v6.156zm-3.101-5.369c-1.32 0-2.203 1.02-2.203 2.288 0 1.274.897 2.294 2.203 2.294 1.28 0 2.19-.988 2.19-2.294 0-1.3-.91-2.288-2.19-2.288zm84.772 23.177a4.79 4.79 0 0 0-2.743-.851c-1.371 0-2.353.624-2.353 1.644 0 .852.676 1.313 2.1 1.476l.864.104c1.502.188 2.84.806 2.84 2.392 0 1.794-1.637 2.737-3.6 2.737-1.313 0-2.73-.462-3.575-1.17l.572-.833c.617.533 1.82 1.014 2.996 1.014 1.41 0 2.522-.572 2.522-1.657 0-.884-.767-1.326-2.203-1.489l-.917-.104c-1.553-.175-2.684-.897-2.684-2.405 0-1.729 1.54-2.697 3.445-2.697 1.378 0 2.437.403 3.269.994l-.533.845zm8.749 0a4.79 4.79 0 0 0-2.743-.851c-1.371 0-2.353.624-2.353 1.644 0 .852.676 1.313 2.1 1.476l.864.104c1.502.188 2.84.806 2.84 2.392 0 1.794-1.637 2.737-3.6 2.737-1.313 0-2.73-.462-3.575-1.17l.572-.833c.617.533 1.82 1.014 2.996 1.014 1.41 0 2.522-.572 2.522-1.657 0-.884-.767-1.326-2.203-1.489l-.917-.104c-1.553-.175-2.684-.897-2.684-2.405 0-1.729 1.54-2.697 3.445-2.697 1.378 0 2.437.403 3.269.994l-.533.845zm9.21 7.378h-6.402v-9.1h6.344v.981h-5.297v3.049h5.135v.975h-5.135v3.113h5.356v.982zm5.493-2.997h-3.614v-.884h3.614v.884zm7.872-4.38a4.79 4.79 0 0 0-2.743-.852c-1.372 0-2.353.624-2.353 1.644 0 .852.676 1.313 2.099 1.476l.865.104c1.501.188 2.84.806 2.84 2.392 0 1.794-1.638 2.737-3.601 2.737-1.313 0-2.73-.462-3.575-1.17l.572-.833c.618.533 1.82 1.014 2.997 1.014 1.41 0 2.522-.572 2.522-1.657 0-.884-.767-1.326-2.204-1.489l-.916-.104c-1.554-.175-2.685-.897-2.685-2.405 0-1.729 1.54-2.697 3.445-2.697 1.378 0 2.438.403 3.27.994l-.533.845zm5.115-1.84c1.794 0 3.01 1.014 3.01 2.49 0 1.072-.566 1.767-1.424 2.131.956.345 1.625 1.086 1.625 2.158 0 1.736-1.521 2.555-3.126 2.555-1.274 0-2.282-.442-2.951-1.196l.643-.67c.572.592 1.385.93 2.288.93 1.125 0 2.1-.533 2.1-1.664 0-1.053-.982-1.651-2.197-1.651h-1.196v-.917h1.189c1.118 0 2.002-.546 2.002-1.625 0-.981-.877-1.605-2.021-1.605-.91 0-1.612.474-2.009 1.033l-.721-.617c.52-.774 1.482-1.352 2.788-1.352zm-36.439 151.839a4.79 4.79 0 0 0-2.743-.851c-1.371 0-2.353.624-2.353 1.644 0 .852.676 1.313 2.1 1.476l.864.104c1.502.188 2.84.806 2.84 2.392 0 1.794-1.637 2.736-3.6 2.736-1.313 0-2.73-.461-3.575-1.17l.572-.832c.617.533 1.82 1.014 2.996 1.014 1.41 0 2.522-.572 2.522-1.657 0-.884-.767-1.326-2.203-1.489l-.917-.104c-1.553-.175-2.684-.897-2.684-2.405 0-1.729 1.54-2.697 3.445-2.697 1.378 0 2.437.403 3.269.994l-.533.845zm8.749 0a4.79 4.79 0 0 0-2.743-.851c-1.371 0-2.353.624-2.353 1.644 0 .852.676 1.313 2.1 1.476l.864.104c1.502.188 2.84.806 2.84 2.392 0 1.794-1.637 2.736-3.6 2.736-1.313 0-2.73-.461-3.575-1.17l.572-.832c.617.533 1.82 1.014 2.996 1.014 1.41 0 2.522-.572 2.522-1.657 0-.884-.767-1.326-2.203-1.489l-.917-.104c-1.553-.175-2.684-.897-2.684-2.405 0-1.729 1.54-2.697 3.445-2.697 1.378 0 2.437.403 3.269.994l-.533.845zm9.21 7.378h-6.402v-9.1h6.344v.981h-5.297v3.049h5.135v.975h-5.135v3.113h5.356v.982zm5.493-2.997h-3.614v-.884h3.614v.884zm6.403-6.233c1.586 0 2.996.721 3.711 1.885l-.871.585c-.604-.897-1.638-1.463-2.84-1.463-2.041 0-3.601 1.482-3.601 3.673s1.56 3.672 3.6 3.672c1.216 0 2.224-.539 2.841-1.456l.845.624c-.76 1.138-2.112 1.84-3.685 1.84-2.704 0-4.7-1.95-4.7-4.68s1.996-4.68 4.7-4.68zM545.6 75.29h-1.046v-7.93l-3.172 6.922h-1.099l-3.165-6.87v7.878h-1.047v-9.1h1.586l3.179 6.877 3.172-6.877h1.592v9.1zm3.055 2.626h-1.072l2.294-3.959-2.828-4.823h1.086l2.295 3.861 2.17-3.86h1.067l-5.012 8.781zm13.117-11.726c1.911 0 3.289.67 3.289 2.398 0 1.027-.552 1.736-1.371 2.015.91.3 1.566 1.034 1.566 2.158 0 1.768-1.3 2.529-3.315 2.529h-3.692v-9.1h3.523zm-2.476 4.972v3.146h2.6c1.365 0 2.262-.357 2.262-1.579 0-1.209-.897-1.567-2.262-1.567h-2.6zm0-3.99v3.015h2.444c1.248 0 2.223-.299 2.223-1.52 0-1.197-.975-1.496-2.23-1.496h-2.437zm13.409 5.55c0 1.827-1.313 2.691-2.795 2.691-1.488 0-2.795-.864-2.795-2.69v-3.589h.969v3.497c0 1.274.767 1.872 1.826 1.872 1.053 0 1.82-.598 1.82-1.872v-3.497h.975v3.588zm4.92-3.711c.917 0 1.73.338 2.282.968l-.624.657c-.468-.449-1.007-.715-1.683-.715-1.229 0-2.171.962-2.171 2.288s.942 2.294 2.17 2.294c.677 0 1.262-.299 1.704-.721l.604.663c-.565.63-1.365.968-2.281.968-1.898 0-3.185-1.378-3.185-3.204 0-1.82 1.287-3.198 3.185-3.198zm4.915 2.62h.89l2.373-2.497h1.215l-2.795 2.9 2.84 3.256h-1.228l-2.411-2.776h-.884v2.776h-.975v-9.36h.975v5.7zm8.229-2.62c1.67 0 2.873 1.306 2.892 3.178a2.86 2.86 0 0 1-.02.364h-4.933c.137 1.326 1.066 2.009 2.178 2.009a2.82 2.82 0 0 0 1.95-.774l.52.663c-.767.735-1.619.962-2.529.962-1.82 0-3.113-1.293-3.113-3.198 0-1.885 1.306-3.204 3.055-3.204zm-.02.864c-1.137 0-1.872.78-2.028 1.892h3.952c-.123-1.15-.877-1.892-1.924-1.892zm8.834.137h-2.659v3.107c0 .962.514 1.384 1.222 1.384.475 0 .93-.175 1.294-.435l.455.734c-.523.404-1.167.619-1.827.611-1.326 0-2.112-.728-2.112-2.275v-3.126h-1.346v-.878h1.346v-1.956h.968v1.956h2.659v.878zM675.6 44.29h-1.046v-7.93l-3.172 6.922h-1.099l-3.165-6.87v7.878h-1.047v-9.1h1.586l3.179 6.877 3.172-6.877h1.592v9.1zm3.055 2.626h-1.072l2.294-3.959-2.828-4.823h1.086l2.295 3.861 2.17-3.86h1.067l-5.012 8.781zm13.767-11.856c2.704 0 4.7 1.95 4.7 4.68s-1.996 4.68-4.7 4.68-4.7-1.95-4.7-4.68 1.996-4.68 4.7-4.68zm0 1.007c-2.041 0-3.601 1.482-3.601 3.673s1.56 3.672 3.601 3.672c2.048 0 3.608-1.482 3.608-3.672s-1.56-3.673-3.608-3.673zm9.848 1.944c1.729 0 3.074 1.352 3.074 3.198 0 1.852-1.345 3.205-3.074 3.205-1.021 0-1.749-.41-2.243-1.034v.91h-.975v-9.36h.975v4.114c.494-.624 1.222-1.033 2.243-1.033zm-.117.91c-1.281 0-2.191.988-2.191 2.288 0 1.306.91 2.294 2.19 2.294 1.32 0 2.198-1.02 2.198-2.294 0-1.268-.891-2.288-2.197-2.288zm5.999 6.383c0 1.092-.604 1.684-1.534 1.684a1.97 1.97 0 0 1-.884-.208l.234-.839c.156.078.358.13.566.13.396 0 .643-.24.643-.812v-7.125h.975v7.17zm-.494-10.043a.68.68 0 0 1 .689.69c0 .39-.305.682-.689.682-.182.004-.359-.066-.488-.195s-.199-.305-.194-.488a.67.67 0 0 1 .682-.689zm5.356 2.75c1.67 0 2.873 1.306 2.893 3.178 0 .137-.007.254-.02.364h-4.933c.136 1.326 1.066 2.009 2.177 2.009a2.82 2.82 0 0 0 1.95-.774l.52.663c-.767.735-1.618.963-2.528.963-1.82 0-3.114-1.294-3.114-3.199 0-1.885 1.307-3.204 3.055-3.204zm-.02.864c-1.137 0-1.871.78-2.027 1.892h3.952c-.124-1.15-.878-1.892-1.924-1.892zm7.437-.864c.916 0 1.729.338 2.281.968l-.624.657c-.468-.449-1.007-.715-1.683-.715-1.229 0-2.171.962-2.171 2.288s.942 2.294 2.17 2.294c.677 0 1.262-.299 1.704-.721l.604.663c-.565.63-1.365.968-2.281.968-1.898 0-3.185-1.378-3.185-3.204 0-1.82 1.287-3.198 3.185-3.198zm8.203 1.001h-2.659v3.107c0 .962.514 1.384 1.222 1.384.475 0 .93-.175 1.294-.435l.455.734c-.523.404-1.166.62-1.827.612-1.326 0-2.112-.729-2.112-2.276v-3.126h-1.346v-.878h1.346v-1.956h.968v1.956h2.659v.878zM361.197 353.208h-1.08v4.082h-1.046v-9.1h1.047v4.03h1.098l3.777-4.03h1.352l-4.277 4.465 4.556 4.635h-1.423l-4.004-4.082zm16.425 4.082h-1.046v-7.93l-3.172 6.922h-1.099l-3.165-6.87v7.878h-1.047v-9.1h1.586l3.179 6.877 3.172-6.877h1.592v9.1zm8.567-7.378a4.79 4.79 0 0 0-2.743-.851c-1.371 0-2.353.624-2.353 1.644 0 .852.676 1.313 2.1 1.476l.864.104c1.502.188 2.84.806 2.84 2.392 0 1.794-1.637 2.736-3.6 2.736-1.313 0-2.73-.461-3.575-1.17l.572-.832c.617.533 1.82 1.014 2.996 1.014 1.41 0 2.522-.572 2.522-1.657 0-.884-.767-1.326-2.203-1.489l-.917-.104c-1.553-.175-2.684-.897-2.684-2.405 0-1.729 1.54-2.697 3.445-2.697 1.378 0 2.437.403 3.269.994l-.533.845z" class="C"/></g><defs ><path id="B" d="M184.846 139.99l-23.56-10.1v-28.13l23.56-9 24.72 9v28.15l-24.72 10.08zm-22.4-10.84l22.44 9.62 23.56-9.62v-26.61l-23.58-8.56-22.42 8.55v26.62z"/><path id="C" d="M185.436 139.38h-1.16v-28.61l24.07-9.17.41 1.09-23.32 8.88z"/><path id="D" d="M184.436 288.38h-1.16v-28.61l24.07-9.16.41 1.08-23.32 8.88z"/><path id="E" d="M699.346 172.98l-16-6.88v-19.2l16-6.11 16.83 6.11v19.21l-16.83 6.87zm-14.9-7.61l15 6.41 15.72-6.41v-17.69l-15.72-5.7-15 5.7v17.69z"/><path id="F" d="M699.906 172.38h-1.11v-19.39l16.33-6.22.39 1.04-15.61 5.94z"/><path id="G" d="M699.346 321.98l-16-6.88v-19.2l16-6.11 16.83 6.11v19.21l-16.83 6.87zm-14.9-7.61l15 6.41 15.72-6.42v-17.69l-15.72-5.7-15 5.69v17.71z"/></defs></svg>