<svg width="73" height="72" viewBox="0 10 73 72" fill="none" xmlns="http://www.w3.org/2000/svg">
<path d="M28.0831 17.1967V27.7735H17.5063V17.1967H28.0831ZM30.3871 12.0127H15.2023C13.6111 12.0127 12.3223 13.3029 12.3223 14.8927V30.0775C12.3223 31.6687 13.6125 32.9575 15.2023 32.9575H30.3871C31.9783 32.9575 33.2671 31.6673 33.2671 30.0775V14.8927C33.2671 13.3015 31.9768 12.0127 30.3871 12.0127Z" fill="#FF562C"/>
<path d="M54.8272 17.1967V27.7735H44.249V17.1967H54.8272ZM57.1298 12.0127H41.9464C40.3552 12.0127 39.0664 13.3029 39.0664 14.8927V30.0775C39.0664 31.6687 40.3566 32.9575 41.9464 32.9575H57.1312C58.7224 32.9575 60.0112 31.6673 60.0112 30.0775V14.8927C60.0112 13.3015 58.721 12.0127 57.1298 12.0127Z" fill="#FF562C"/>
<path d="M27.9893 44.0824V54.6592H17.4111V44.0824H27.9893ZM30.2919 38.8984H15.1085C13.5173 38.8984 12.2285 40.1887 12.2285 41.7784V56.9632C12.2285 58.5544 13.5188 59.8432 15.1085 59.8432H30.2933C31.8845 59.8432 33.1733 58.553 33.1733 56.9632V41.7784C33.1733 40.1887 31.8831 38.8984 30.2919 38.8984Z" fill="#FF562C"/>
<path d="M54.7315 44.0824V54.6592H44.1547V44.0824H54.7315ZM57.0355 38.8984H41.8507C40.2595 38.8984 38.9707 40.1887 38.9707 41.7784V56.9632C38.9707 58.5544 40.2609 59.8432 41.8507 59.8432H57.0355C58.6267 59.8432 59.9155 58.553 59.9155 56.9632V41.7784C59.9155 40.1887 58.6267 38.8984 57.0355 38.8984Z" fill="#FF562C"/>
</svg>
