<svg width="73" height="72" viewBox="0 11 73 72" fill="none" xmlns="http://www.w3.org/2000/svg">
<path fill-rule="evenodd" clip-rule="evenodd" d="M36.9549 12.9589C36.3455 12.6762 35.6416 12.6806 35.0357 12.971L5.52753 27.1139C4.75392 27.4846 4.25847 28.2631 4.25011 29.1209C4.24174 29.9788 4.72192 30.7667 5.48816 31.1525L15.0697 35.9767V50.7143C15.0697 50.9455 15.1053 51.1754 15.1753 51.3957C16.5154 55.6127 22.6502 62.25 36.0082 62.25C49.3592 62.25 56.0356 55.6431 57.752 51.5921C57.8697 51.3144 57.9303 51.0159 57.9303 50.7143V35.8213L61.25 34.2038V48C61.25 49.2426 62.2574 50.25 63.5 50.25C64.7426 50.25 65.75 49.2426 65.75 48V32.0112L67.4855 31.1655C68.2661 30.7852 68.7582 29.9896 68.7499 29.1214C68.7416 28.2531 68.2344 27.4671 67.4467 27.1017L36.9549 12.9589ZM19.5697 50.3202V38.2424L34.9964 46.0096C35.6236 46.3255 36.3624 46.3303 36.9937 46.0227L53.4303 38.0139V50.2066C52.166 52.5728 47.2096 57.75 36.0082 57.75C24.716 57.75 20.4739 52.5099 19.5697 50.3202ZM11.6021 29.1926L36.0239 17.4875L61.2605 29.1929L36.0246 41.4891L11.6021 29.1926Z" fill="#FF562C"/>
</svg>
